<?xml version="1.0" encoding="UTF-8" standalone="no"?>
<svg
   xmlns:dc="http://purl.org/dc/elements/1.1/"
   xmlns:cc="http://creativecommons.org/ns#"
   xmlns:rdf="http://www.w3.org/1999/02/22-rdf-syntax-ns#"
   xmlns:svg="http://www.w3.org/2000/svg"
   xmlns="http://www.w3.org/2000/svg"
   xmlns:sodipodi="http://sodipodi.sourceforge.net/DTD/sodipodi-0.dtd"
   xmlns:inkscape="http://www.inkscape.org/namespaces/inkscape"
   version="1.1"
   id="Your_Icon"
   x="0px"
   y="0px"
   width="30"
   height="31.492006"
   viewBox="0 0 30 31.492006"
   enable-background="new 0 0 100 100"
   xml:space="preserve"
   inkscape:version="0.48.4 r9939"
   sodipodi:docname="upload.svg"><metadata
     id="metadata3082"><rdf:RDF><cc:Work
         rdf:about=""><dc:format>image/svg+xml</dc:format><dc:type
           rdf:resource="http://purl.org/dc/dcmitype/StillImage" /></cc:Work></rdf:RDF></metadata><defs
     id="defs3080" /><sodipodi:namedview
     pagecolor="#ffffff"
     bordercolor="#666666"
     borderopacity="1"
     objecttolerance="10"
     gridtolerance="10"
     guidetolerance="10"
     inkscape:pageopacity="0"
     inkscape:pageshadow="2"
     inkscape:window-width="1304"
     inkscape:window-height="940"
     id="namedview3078"
     showgrid="false"
     fit-margin-top="0"
     fit-margin-left="0"
     fit-margin-right="0"
     fit-margin-bottom="0"
     inkscape:zoom="2.36"
     inkscape:cx="16"
     inkscape:cy="10"
     inkscape:window-x="463"
     inkscape:window-y="187"
     inkscape:window-maximized="0"
     inkscape:current-layer="Your_Icon" /><g
     id="g3072"
     transform="translate(-34,-28.507994)"><path
       d="m 60,50 c -0.55,0 -1,0.45 -1,1 v 3 c 0,0.55 -0.45,1 -1,1 H 40 c -0.55,0 -1,-0.45 -1,-1 v -3 c 0,-0.55 -0.45,-1 -1,-1 h -3 c -0.55,0 -1,0.45 -1,1 v 8 c 0,0.55 0.45,1 1,1 h 28 c 0.55,0 1,-0.45 1,-1 v -8 c 0,-0.55 -0.45,-1 -1,-1 h -3 z"
       id="path3074"
       inkscape:connector-curvature="0"
       style="fill:#000000" /><path
       d="m 45,37.247 c 0.55,0 1,0.451 1,1.001 V 49 c 0,0.55 0.45,1 1,1 h 3 c 0.55,0 1,-0.45 1,-1 V 38.254 c 0,-0.55 0.45,-1 1,-0.999 l 0.841,10e-4 c 0.55,0 0.777,-0.39 0.505,-0.868 l -4.29,-7.52 c -0.272,-0.478 -0.723,-0.48 -1.001,-0.006 l -4.414,7.52 c -0.278,0.474 -0.056,0.863 0.494,0.863 L 45,37.247 z"
       id="path3076"
       inkscape:connector-curvature="0"
       style="fill:#000000" /></g></svg>